<svg xmlns="http://www.w3.org/2000/svg" width="460" height="194" viewBox="0 0 460 194" role="img" aria-label="Most used languages"><style>text{font-family:"Segoe UI",Ubuntu,Helvetica,Arial,sans-serif}</style><rect x="0.5" y="0.5" width="459.0" height="193.0" rx="10" fill="#0d1117" stroke="#30363d"/><text x="25" y="34" fill="#ffffff" font-size="17" font-weight="600">Most used languages</text><rect x="25.00" y="52" width="315.33" height="11" fill="#DA5B0B"/><rect x="340.33" y="52" width="42.29" height="11" fill="#e34c26"/><rect x="382.62" y="52" width="28.38" height="11" fill="#3572A5"/><rect x="411.01" y="52" width="20.01" height="11" fill="#3178c6"/><rect x="431.02" y="52" width="2.09" height="11" fill="#f1e05a"/><rect x="433.11" y="52" width="1.56" height="11" fill="#663399"/><rect x="434.67" y="52" width="1.00" height="11" fill="#012456"/><rect x="434.85" y="52" width="1.00" height="11" fill="#5686a5"/><rect x="25" y="52" width="410" height="11" rx="5.5" fill="none" stroke="#21262d"/><circle cx="32" cy="88" r="5" fill="#DA5B0B"/><text x="45" y="92" fill="#c9d1d9" font-size="12">Jupyter Notebook</text><text x="217" y="92" fill="#8b949e" font-size="12" text-anchor="end">76.9%</text><circle cx="242" cy="88" r="5" fill="#e34c26"/><text x="255" y="92" fill="#c9d1d9" font-size="12">HTML</text><text x="427" y="92" fill="#8b949e" font-size="12" text-anchor="end">10.3%</text><circle cx="32" cy="112" r="5" fill="#3572A5"/><text x="45" y="116" fill="#c9d1d9" font-size="12">Python</text><text x="217" y="116" fill="#8b949e" font-size="12" text-anchor="end">6.9%</text><circle cx="242" cy="112" r="5" fill="#3178c6"/><text x="255" y="116" fill="#c9d1d9" font-size="12">TypeScript</text><text x="427" y="116" fill="#8b949e" font-size="12" text-anchor="end">4.9%</text><circle cx="32" cy="136" r="5" fill="#f1e05a"/><text x="45" y="140" fill="#c9d1d9" font-size="12">JavaScript</text><text x="217" y="140" fill="#8b949e" font-size="12" text-anchor="end">0.5%</text><circle cx="242" cy="136" r="5" fill="#663399"/><text x="255" y="140" fill="#c9d1d9" font-size="12">CSS</text><text x="427" y="140" fill="#8b949e" font-size="12" text-anchor="end">0.4%</text><circle cx="32" cy="160" r="5" fill="#012456"/><text x="45" y="164" fill="#c9d1d9" font-size="12">PowerShell</text><text x="217" y="164" fill="#8b949e" font-size="12" text-anchor="end">0.0%</text><circle cx="242" cy="160" r="5" fill="#5686a5"/><text x="255" y="164" fill="#c9d1d9" font-size="12">GLSL</text><text x="427" y="164" fill="#8b949e" font-size="12" text-anchor="end">0.0%</text></svg>